<?xml version="1.0" standalone="no"?>
<!DOCTYPE svg PUBLIC "-//W3C//DTD SVG 20010904//EN"
 "http://www.w3.org/TR/2001/REC-SVG-20010904/DTD/svg10.dtd">
<svg version="1.0" xmlns="http://www.w3.org/2000/svg"
 width="120.000000pt" height="120.000000pt" viewBox="0 0 120.000000 120.000000"
 preserveAspectRatio="xMidYMid meet">
<metadata>
Created by potrace 1.16, written by Peter Selinger 2001-2019
</metadata>
<g transform="translate(0.000000,120.000000) scale(0.100000,-0.100000)"
fill="#000000" stroke="none">
<path d="M528 971 c-108 -35 -206 -132 -243 -242 l-16 -46 -44 15 c-48 15 -99
11 -130 -12 -17 -12 -18 -16 -5 -31 8 -10 30 -25 49 -32 20 -9 30 -18 23 -22
-15 -9 -37 -94 -29 -114 11 -28 37 -19 84 27 24 25 46 39 47 33 2 -7 9 -34 15
-62 16 -65 53 -128 107 -181 191 -185 503 -105 596 153 60 167 -2 370 -144
466 -97 66 -203 82 -310 48z m426 -297 c3 -9 6 -42 6 -75 l0 -59 -82 7 c-100
10 -490 9 -536 0 l-33 -7 3 67 3 66 245 -1 c200 -1 323 4 381 17 4 0 10 -6 13
-15z"/>
</g>
</svg>
