<?xml version="1.0" standalone="no"?>
<!DOCTYPE svg PUBLIC "-//W3C//DTD SVG 20010904//EN"
 "http://www.w3.org/TR/2001/REC-SVG-20010904/DTD/svg10.dtd">
<svg version="1.0" xmlns="http://www.w3.org/2000/svg"
 width="64.000000pt" height="64.000000pt" viewBox="0 0 64.000000 64.000000"
 preserveAspectRatio="xMidYMid meet">

<g transform="translate(0.000000,64.000000) scale(0.100000,-0.100000)"
fill="#000000" stroke="none">
<path d="M310 581 c-77 -24 -146 -87 -174 -163 -17 -45 -18 -45 -49 -36 -35
11 -91 -4 -85 -23 2 -6 17 -18 33 -27 17 -9 32 -18 34 -19 2 -2 -3 -11 -12
-21 -21 -23 -23 -82 -3 -82 7 0 25 11 39 24 l25 23 18 -45 c49 -130 193 -201
320 -158 66 21 113 62 149 127 26 47 30 64 30 134 0 70 -4 87 -30 134 -16 29
-45 66 -64 82 -61 50 -160 71 -231 50z m86 -222 c96 0 180 3 186 7 22 14 40
-65 20 -91 -4 -6 -93 -10 -230 -10 l-222 0 0 54 0 53 36 -6 c19 -4 114 -7 210
-7z"/>
<path d="M220 321 c0 -15 39 -24 68 -16 25 7 26 8 7 15 -28 12 -75 12 -75 1z"/>
<path d="M467 323 c-9 -2 -15 -9 -12 -14 10 -14 61 -10 75 6 11 13 8 15 -16
14 -16 -1 -37 -3 -47 -6z"/>
</g>
</svg>
